<?xml version="1.0" encoding="UTF-8"?>
<svg version="1.1" xmlns="http://www.w3.org/2000/svg" width="180" height="169">
<path d="M0 0 C59.4 0 118.8 0 180 0 C180 55.77 180 111.54 180 169 C120.6 169 61.2 169 0 169 C0 113.23 0 57.46 0 0 Z " fill="#FCFCFC" transform="translate(0,0)"/>
<path d="M0 0 C0.99 0 1.98 0 3 0 C3 1.32 3 2.64 3 4 C3.69996094 3.51144531 4.39992188 3.02289063 5.12109375 2.51953125 C8.39921348 0.78928895 10.38502469 0.62706109 14.0625 0.6875 C15.59583984 0.69330078 15.59583984 0.69330078 17.16015625 0.69921875 C19.96730555 0.99653718 21.56017993 1.66918905 24 3 C26.30797001 2.66059264 27.91510461 2.04244769 30 1 C31.93123211 0.80031574 33.8719689 0.68721185 35.8125 0.625 C36.85019531 0.57601562 37.88789062 0.52703125 38.95703125 0.4765625 C42 1 42 1 44.8671875 2.87890625 C47.92389249 7.35199651 47.55506715 11.03199972 47.3125 16.3125 C47.28994141 17.24384766 47.26738281 18.17519531 47.24414062 19.13476562 C47.18542078 21.4248396 47.10336858 23.71157875 47 26 C48.65 26.33 50.3 26.66 52 27 C52 27.66 52 28.32 52 29 C46.72 29 41.44 29 36 29 C36.495 27.515 36.495 27.515 37 26 C37.66 26 38.32 26 39 26 C38.85924795 23.06217531 38.7126162 20.12484829 38.5625 17.1875 C38.52318359 16.35412109 38.48386719 15.52074219 38.44335938 14.66210938 C38.40146484 13.85966797 38.35957031 13.05722656 38.31640625 12.23046875 C38.26141968 11.12288208 38.26141968 11.12288208 38.20532227 9.99291992 C38.05157859 7.792505 38.05157859 7.792505 37 5 C35.7625 4.95875 34.525 4.9175 33.25 4.875 C32.55390625 4.85179688 31.8578125 4.82859375 31.140625 4.8046875 C28.57815832 4.90751009 28.57815832 4.90751009 25 7 C25 13.27 25 19.54 25 26 C26.65 26.33 28.3 26.66 30 27 C30 27.66 30 28.32 30 29 C24.39 28.67 18.78 28.34 13 28 C14.32 27.34 15.64 26.68 17 26 C17.33 19.4 17.66 12.8 18 6 C15.35559361 5.1185312 13.71939248 4.83825182 11 4.8125 C10.319375 4.79832031 9.63875 4.78414063 8.9375 4.76953125 C6.67385868 4.89059589 6.67385868 4.89059589 4 7 C3.49378487 9.02276681 3.49378487 9.02276681 3.48828125 11.3515625 C3.45283203 12.20234375 3.41738281 13.053125 3.38085938 13.9296875 C3.34702148 15.26386719 3.34702148 15.26386719 3.3125 16.625 C3.27833984 17.5221875 3.24417969 18.419375 3.20898438 19.34375 C3.12637598 21.56237538 3.05727281 23.7805994 3 26 C4.65 26.33 6.3 26.66 8 27 C8 27.66 8 28.32 8 29 C2.39 29 -3.22 29 -9 29 C-9 28.34 -9 27.68 -9 27 C-7.35 26.67 -5.7 26.34 -4 26 C-4 19.73 -4 13.46 -4 7 C-5.65 6.67 -7.3 6.34 -9 6 C-9 5.34 -9 4.68 -9 4 C-8.43410156 3.79503906 -7.86820312 3.59007813 -7.28515625 3.37890625 C-6.55167969 3.10949219 -5.81820312 2.84007813 -5.0625 2.5625 C-4.33160156 2.29566406 -3.60070312 2.02882813 -2.84765625 1.75390625 C-1.01694322 1.14613052 -1.01694322 1.14613052 0 0 Z " fill="#0C0A63" transform="translate(89,105)"/>
<path d="M0 0 C1.30066406 0.00386719 2.60132813 0.00773437 3.94140625 0.01171875 C7.4375 0.3125 7.4375 0.3125 11.4375 2.3125 C11.4375 5.2825 11.4375 8.2525 11.4375 11.3125 C10.4475 11.3125 9.4575 11.3125 8.4375 11.3125 C7.05626037 9.34527992 5.72261874 7.34381672 4.4375 5.3125 C1.31043041 3.7489652 -2.14232443 3.91291513 -5.5625 4.3125 C-8.78654978 5.98204819 -8.78654978 5.98204819 -9.25 8.9375 C-9.353125 9.72125 -9.45625 10.505 -9.5625 11.3125 C-8.9025 11.3125 -8.2425 11.3125 -7.5625 11.3125 C-7.1809375 11.745625 -6.799375 12.17875 -6.40625 12.625 C-3.70353427 15.09867203 -0.4510475 16.07325977 2.9375 17.3125 C11.33679269 20.38424133 11.33679269 20.38424133 13.4375 23.3125 C13.4375 23.9725 13.4375 24.6325 13.4375 25.3125 C14.0975 25.3125 14.7575 25.3125 15.4375 25.3125 C15.49187607 26.89544782 15.53046271 28.47894256 15.5625 30.0625 C15.58570313 30.94421875 15.60890625 31.8259375 15.6328125 32.734375 C15.36842129 36.22433896 14.42952487 38.27401666 12.01953125 40.796875 C5.43794685 45.50423338 -1.74743889 45.12124815 -9.5625 44.3125 C-13.0234375 43.28515625 -13.0234375 43.28515625 -15.5625 42.3125 C-15.5625 39.0125 -15.5625 35.7125 -15.5625 32.3125 C-14.2425 32.3125 -12.9225 32.3125 -11.5625 32.3125 C-10.65104167 34.0703125 -9.73958333 35.828125 -8.828125 37.5859375 C-7.25909603 39.72640295 -6.05469433 40.42275485 -3.5625 41.3125 C0.63247376 41.53060955 4.31822424 41.26717638 7.5625 38.5 C8.61415191 35.87087021 8.52240328 34.89957705 7.4375 32.3125 C4.54568704 27.97478055 0.25204594 27.32020891 -4.53320312 25.82617188 C-10.46030626 23.80295165 -13.69749794 21.04250411 -16.5625 15.3125 C-17.00002262 11.46230098 -16.70736622 9.5861362 -14.875 6.125 C-10.4693566 0.76678505 -6.84958747 -0.08842566 0 0 Z " fill="#120F68" transform="translate(18.5625,89.6875)"/>
<path d="M0 0 C2.14428711 1.23974609 2.14428711 1.23974609 4 3 C4.45410156 5.17651367 4.45410156 5.17651367 4.390625 7.66796875 C4.37128906 9.00698242 4.37128906 9.00698242 4.3515625 10.37304688 C4.31804687 11.30181641 4.28453125 12.23058594 4.25 13.1875 C4.23195312 14.12787109 4.21390625 15.06824219 4.1953125 16.03710938 C4.1481655 18.35909889 4.08238231 20.6790369 4 23 C5.65 22.67 7.3 22.34 9 22 C8.42655063 24.86724686 8.1385485 25.8614515 6 28 C3.375 28.125 3.375 28.125 1 28 C0.34 26.68 -0.32 25.36 -1 24 C-2.134375 24.66 -3.26875 25.32 -4.4375 26 C-8.97205919 28.26325246 -12.99348088 28.85573117 -18 28 C-20.5625 26.5 -20.5625 26.5 -22 25 C-21.73339601 21.80075206 -21.28552552 20.30394652 -19.0625 17.9375 C-14.77189684 15.22303678 -9.20151585 12 -4 12 C-4.33 9.03 -4.66 6.06 -5 3 C-9.14093698 2.79029441 -9.14093698 2.79029441 -13 4 C-13.1546875 5.2065625 -13.1546875 5.2065625 -13.3125 6.4375 C-13.539375 7.283125 -13.76625 8.12875 -14 9 C-16.88909849 10.59660706 -18.69058796 11 -22 11 C-21.66526889 8.06735584 -21.37311975 6.40857056 -19.35546875 4.19921875 C-13.15589177 -0.12372952 -7.51132652 -1.40225922 0 0 Z " fill="#13126A" transform="translate(167,106)"/>
<path d="M0 0 C2.59415328 0.35800417 3.70894402 0.63803519 5.37890625 2.71484375 C11.4228606 14.06471182 13.66754111 23.48721269 10 36 C9.67 36.66 9.34 37.32 9 38 C8.34 38 7.68 38 7 38 C6.67 39.32 6.34 40.64 6 42 C3.43569434 41.62899407 2.28752197 41.33994311 0.5859375 39.328125 C0.18632813 38.64234375 -0.21328125 37.9565625 -0.625 37.25 C-1.02976562 36.57453125 -1.43453125 35.8990625 -1.8515625 35.203125 C-5.92272612 27.39313764 -6.22516469 18.74641759 -4.39453125 10.16015625 C-3.22797933 6.60128465 -1.6999106 3.33330296 0 0 Z " fill="#FCCD0E" transform="translate(98,38)"/>
<path d="M0 0 C8.77882803 4.2205904 15.51464846 11.95390441 19.21875 20.96484375 C20.03468928 24.13476786 20.26671884 26.85646742 20.25 30.125 C20.25515625 31.13820313 20.2603125 32.15140625 20.265625 33.1953125 C20.00227836 35.97594316 19.42854504 37.63042927 18 40 C13.59124045 39.49614177 11.17449034 38.0886933 8 35 C6.6875 32.25 6.6875 32.25 6 30 C5.34 30 4.68 30 4 30 C0.26382934 23.185806 -0.52863001 17.63733318 -0.25 9.9375 C-0.23195313 8.97650391 -0.21390625 8.01550781 -0.1953125 7.02539062 C-0.14868796 4.68250773 -0.08328169 2.3418171 0 0 Z " fill="#FBCD0E" transform="translate(71,42)"/>
<path d="M0 0 C0.99 0 1.98 0 3 0 C3 5.94 3 11.88 3 18 C2.34 18 1.68 18 1 18 C0.95101562 18.63808594 0.90203125 19.27617188 0.8515625 19.93359375 C0.77679688 20.75988281 0.70203125 21.58617188 0.625 22.4375 C0.55539063 23.26121094 0.48578125 24.08492187 0.4140625 24.93359375 C0.27742188 25.61550781 0.14078125 26.29742187 0 27 C-0.66 27.33 -1.32 27.66 -2 28 C-2.5775 29.0725 -3.155 30.145 -3.75 31.25 C-5.92028527 35.19227848 -8.3190126 37.41547693 -12 40 C-12.99 40 -13.98 40 -15 40 C-15.495 38.515 -15.495 38.515 -16 37 C-16.66 36.67 -17.32 36.34 -18 36 C-18.49453541 27.22657557 -17.37379758 19.24294456 -12 12 C-11.34 12 -10.68 12 -10 12 C-9.79375 11.278125 -9.5875 10.55625 -9.375 9.8125 C-7.52471012 6.02781616 -5.39759562 4.47741347 -2 2 C-1.34 2 -0.68 2 0 2 C0 1.34 0 0.68 0 0 Z " fill="#FCCE10" transform="translate(130,42)"/>
<path d="M0 0 C2.89755943 1.96556093 4.75473042 3.73170501 6.70703125 6.66015625 C6.70703125 7.98015625 6.70703125 9.30015625 6.70703125 10.66015625 C0.96370643 13.53181866 -9.39682345 12.20835962 -15.48046875 10.66015625 C-23.90653123 7.7011711 -31.18330706 2.04803568 -37.29296875 -4.33984375 C-24.16701234 -8.51933626 -11.8947098 -6.95040112 0 0 Z " fill="#FCCC07" transform="translate(65.29296875,88.33984375)"/>
<path d="M0 0 C4.29 0 8.58 0 13 0 C13.06058594 1.57652344 13.12117188 3.15304688 13.18359375 4.77734375 C13.26797987 6.83073943 13.35262883 8.88412431 13.4375 10.9375 C13.47681641 11.97841797 13.51613281 13.01933594 13.55664062 14.09179688 C13.61948242 15.57583008 13.61948242 15.57583008 13.68359375 17.08984375 C13.72025146 18.00628662 13.75690918 18.92272949 13.79467773 19.86694336 C13.77003864 21.9820728 13.77003864 21.9820728 15 23 C18.06677564 23.27260228 20.30968217 23.30193575 23.15234375 22.05859375 C26.1169008 18.75558833 25.67694572 15.10609945 25.75 10.8125 C25.79447266 9.5450293 25.79447266 9.5450293 25.83984375 8.25195312 C25.9104699 6.16848178 25.95750795 4.08423494 26 2 C24.35 2 22.7 2 21 2 C21 1.34 21 0.68 21 0 C25.29 0 29.58 0 34 0 C34 7.59 34 15.18 34 23 C35.65 23 37.3 23 39 23 C39 23.66 39 24.32 39 25 C32.565 26.485 32.565 26.485 26 28 C26 26.35 26 24.7 26 23 C25.175 23.639375 24.35 24.27875 23.5 24.9375 C19.61197817 27.49589172 16.66742069 28 12 28 C6.56790123 25.13580247 6.56790123 25.13580247 5 22 C4.84932786 20.5534758 4.75138964 19.1012066 4.68359375 17.6484375 C4.64169922 16.79765625 4.59980469 15.946875 4.55664062 15.0703125 C4.51732422 14.18085937 4.47800781 13.29140625 4.4375 12.375 C4.39431641 11.4778125 4.35113281 10.580625 4.30664062 9.65625 C4.20043139 7.43765717 4.09838806 5.2189512 4 3 C2.68 2.67 1.36 2.34 0 2 C0 1.34 0 0.68 0 0 Z " fill="#15146A" transform="translate(38,107)"/>
<path d="M0 0 C13.41364803 0.33307027 24.57879005 5.57879005 34 15 C34 15.99 34 16.98 34 18 C34.99 18.33 35.98 18.66 37 19 C37.495 23.455 37.495 23.455 38 28 C27.01616772 27.29136566 18.63128576 24.10824112 11 16 C8.84978941 13.42671557 6.8917726 10.7674893 5 8 C4.39478516 7.12408203 4.39478516 7.12408203 3.77734375 6.23046875 C2.39917331 4.20026068 1.09829181 2.19658361 0 0 Z " fill="#FACE13" transform="translate(41,60)"/>
<path d="M0 0 C-2.58854318 7.0306111 -11.59810324 11.38677349 -18.10546875 14.47265625 C-26.68387911 17.63431608 -35.0965184 17.98752856 -44 16 C-43.48588721 10.00201742 -39.85922999 7.5803455 -35.5 3.875 C-24.67833155 -1.92232238 -11.86367842 -2.15703244 0 0 Z " fill="#FBCC0C" transform="translate(175,83)"/>
<path d="M0 0 C-0.40992188 0.53109375 -0.81984375 1.0621875 -1.2421875 1.609375 C-1.78101563 2.31578125 -2.31984375 3.0221875 -2.875 3.75 C-3.40867188 4.44609375 -3.94234375 5.1421875 -4.4921875 5.859375 C-5.89238914 7.84722603 -6.97855265 9.79843386 -8 12 C-8.66 12 -9.32 12 -10 12 C-10.26425781 12.598125 -10.52851563 13.19625 -10.80078125 13.8125 C-14.12605447 19.87814497 -21.65081979 24.56117346 -28.078125 26.6875 C-31.49570556 27.59885482 -34.45048847 28 -38 28 C-37.67 25.69 -37.34 23.38 -37 21 C-36.34 21 -35.68 21 -35 21 C-35.103125 20.29875 -35.20625 19.5975 -35.3125 18.875 C-34.86335833 14.74289667 -33.04119631 12.62764451 -30 10 C-20.91553339 3.64087338 -11.24509274 -0.74967285 0 0 Z " fill="#FCCD07" transform="translate(163,60)"/>
<path d="M0 0 C3.875 1.875 3.875 1.875 5 3 C5.08669432 4.4887186 5.10703494 5.981445 5.09765625 7.47265625 C5.09443359 8.37177734 5.09121094 9.27089844 5.08789062 10.19726562 C5.07951172 11.14279297 5.07113281 12.08832031 5.0625 13.0625 C5.05798828 14.01189453 5.05347656 14.96128906 5.04882812 15.93945312 C5.0370011 18.29303065 5.02052025 20.64648477 5 23 C2.3333581 24.33332095 0.83319697 23.67102033 -2 23 C-2.25417629 19.5430244 -2.47407622 16.08471174 -2.6875 12.625 C-2.76033203 11.64015625 -2.83316406 10.6553125 -2.90820312 9.640625 C-2.96298828 8.69960937 -3.01777344 7.75859375 -3.07421875 6.7890625 C-3.13182373 5.91975098 -3.18942871 5.05043945 -3.2487793 4.15478516 C-3.16668213 3.44370605 -3.08458496 2.73262695 -3 2 C-2.01 1.34 -1.02 0.68 0 0 Z " fill="#090764" transform="translate(131,108)"/>
<path d="M0 0 C1.30066406 0.00386719 2.60132813 0.00773437 3.94140625 0.01171875 C7.4375 0.3125 7.4375 0.3125 11.4375 2.3125 C11.4375 5.2825 11.4375 8.2525 11.4375 11.3125 C10.4475 11.3125 9.4575 11.3125 8.4375 11.3125 C7.05626037 9.34527992 5.72261874 7.34381672 4.4375 5.3125 C1.25197358 3.71973679 -2.10350318 3.78193674 -5.5625 4.3125 C-7.81315102 6.22916921 -7.81315102 6.22916921 -9.5625 8.3125 C-10.8825 8.3125 -12.2025 8.3125 -13.5625 8.3125 C-13.5625 11.2825 -13.5625 14.2525 -13.5625 17.3125 C-14.2225 17.3125 -14.8825 17.3125 -15.5625 17.3125 C-16.99554064 14.44641871 -16.86894155 12.49949217 -16.5625 9.3125 C-12.58008327 1.7901573 -8.34580366 -0.10774126 0 0 Z " fill="#151363" transform="translate(18.5625,89.6875)"/>
<path d="M0 0 C-0.86625 0.56267578 -0.86625 0.56267578 -1.75 1.13671875 C-2.4925 1.64847656 -3.235 2.16023438 -4 2.6875 C-4.7425 3.18636719 -5.485 3.68523437 -6.25 4.19921875 C-8.27728387 5.90819999 -8.27728387 5.90819999 -8.25 8.70703125 C-8.12625 9.84205078 -8.12625 9.84205078 -8 11 C-6.906875 10.835 -5.81375 10.67 -4.6875 10.5 C-1 10 -1 10 2 10 C-3.00112095 14.07986183 -5.42673445 15.27543166 -11.80078125 15.234375 C-14.58556551 14.93759515 -16.07329053 14.01047945 -18 12 C-17.73339601 8.80075206 -17.28552552 7.30394652 -15.0625 4.9375 C-4.05405405 -2.02702703 -4.05405405 -2.02702703 0 0 Z " fill="#181567" transform="translate(163,119)"/>
<path d="M0 0 C1.31157516 2.62315032 0.89649988 4.23033436 0.5625 7.125 C0.46066406 8.03507812 0.35882813 8.94515625 0.25390625 9.8828125 C0.17011719 10.58148438 0.08632812 11.28015625 0 12 C-0.66 12 -1.32 12 -2 12 C-2.33 14.31 -2.66 16.62 -3 19 C4.03054422 17.4761382 9.90505625 15.84246454 16 12 C16.66 12 17.32 12 18 12 C18.495 13.98 18.495 13.98 19 16 C17.9275 16.45375 16.855 16.9075 15.75 17.375 C13.11937683 18.50088537 10.53999604 19.67920206 8 21 C8 20.34 8 19.68 8 19 C7.15695313 19.24556641 7.15695313 19.24556641 6.296875 19.49609375 C3.86940944 20.02864997 1.73110319 20.09898681 -0.75 20.0625 C-1.54921875 20.05347656 -2.3484375 20.04445313 -3.171875 20.03515625 C-3.77515625 20.02355469 -4.3784375 20.01195313 -5 20 C-5 17.36 -5 14.72 -5 12 C-5.556875 12.33 -6.11375 12.66 -6.6875 13 C-9.30284522 14.1309601 -11.1806646 14.15662974 -14 14 C-14.33 12.35 -14.66 10.7 -15 9 C-14.01 9.495 -14.01 9.495 -13 10 C-13 10.99 -13 11.98 -13 13 C-7.14160741 9.81972974 -3.18027026 5.85839259 0 0 Z " fill="#FCF2B1" transform="translate(128,69)"/>
<path d="M0 0 C0.82177734 0.58007812 0.82177734 0.58007812 1.66015625 1.171875 C9.07153694 6.04048931 16.46570345 8.06555945 25 10 C25 10.33 25 10.66 25 11 C23.54176788 11.0270043 22.08339325 11.04639787 20.625 11.0625 C19.81289062 11.07410156 19.00078125 11.08570312 18.1640625 11.09765625 C16 11 16 11 14 10 C14 10.66 14 11.32 14 12 C11.36305896 10.96647366 8.76940027 9.89401405 6.1953125 8.7109375 C-4.22120318 4.17856045 -13.90291424 3.93306189 -25 6 C-23.68 7.65 -22.36 9.3 -21 11 C-22.98 11 -24.96 11 -27 11 C-26.67 10.01 -26.34 9.02 -26 8 C-26.66 8 -27.32 8 -28 8 C-28 7.01 -28 6.02 -28 5 C-24.6816923 3.01039227 -22.20040301 2.7638255 -18.359375 2.8046875 C-17.28945313 2.81113281 -16.21953125 2.81757812 -15.1171875 2.82421875 C-14.00601563 2.84097656 -12.89484375 2.85773438 -11.75 2.875 C-10.62335937 2.88402344 -9.49671875 2.89304687 -8.3359375 2.90234375 C-5.55707635 2.92589342 -2.7786461 2.9587832 0 3 C0 2.01 0 1.02 0 0 Z " fill="#FDF9C7" transform="translate(54,78)"/>
<path d="M0 0 C1.98 0 3.96 0 6 0 C6 0.66 6 1.32 6 2 C7.65 2 9.3 2 11 2 C11.33 3.32 11.66 4.64 12 6 C12.99 6 13.98 6 15 6 C15.33 5.01 15.66 4.02 16 3 C16.66 4.98 17.32 6.96 18 9 C18.66 9 19.32 9 20 9 C21.21875 10.4609375 21.21875 10.4609375 22.5 12.375 C23.92246226 14.48267274 25.19154973 16.19154973 27 18 C26.01 18.33 25.02 18.66 24 19 C23.67 20.98 23.34 22.96 23 25 C22.67 25 22.34 25 22 25 C21.87882812 24.36191406 21.75765625 23.72382812 21.6328125 23.06640625 C21.46523437 22.24011719 21.29765625 21.41382812 21.125 20.5625 C20.96257812 19.73878906 20.80015625 18.91507813 20.6328125 18.06640625 C20.42398438 17.38449219 20.21515625 16.70257813 20 16 C19.34 15.67 18.68 15.34 18 15 C17.56429687 14.23042969 17.12859375 13.46085937 16.6796875 12.66796875 C14.80270014 9.68661441 13.02848764 8.27610486 10.125 6.3125 C9.28195313 5.73113281 8.43890625 5.14976563 7.5703125 4.55078125 C5.10153898 3.06126288 2.70473831 1.98398186 0 1 C0 0.67 0 0.34 0 0 Z " fill="#FDF8C4" transform="translate(57,63)"/>
<path d="M0 0 C0.02888514 3.14581423 0.04675923 6.29159469 0.0625 9.4375 C0.07087891 10.33533203 0.07925781 11.23316406 0.08789062 12.15820312 C0.09111328 13.01220703 0.09433594 13.86621094 0.09765625 14.74609375 C0.10289307 15.53685303 0.10812988 16.3276123 0.11352539 17.14233398 C0 19 0 19 -1 20 C-1.75333604 23.43992779 -1.75333604 23.43992779 -2 27 C-1.34 27.66 -0.68 28.32 0 29 C-1.62339805 30.70884005 -3.29319053 32.37446717 -5 34 C-5.66 34 -6.32 34 -7 34 C-6.22225866 28.94468132 -5.14051606 23.98283716 -4 19 C-3.34 19 -2.68 19 -2 19 C-2 13.06 -2 7.12 -2 1 C-2.99 1 -3.98 1 -5 1 C-5.33 1.66 -5.66 2.32 -6 3 C-6 2.01 -6 1.02 -6 0 C-3.50907189 -1.24546405 -2.58919267 -0.7767578 0 0 Z " fill="#FDFCD6" transform="translate(135,41)"/>
<path d="M0 0 C0.48676056 7.42309859 0.48676056 7.42309859 -1.6875 10 C-4.33807365 11.14619401 -6.14056871 11.30912771 -9 11 C-10 10 -10 10 -10.375 7.6875 C-10 5 -10 5 -7.625 2.75 C-3.5 0 -3.5 0 0 0 Z " fill="#DBDFEE" transform="translate(164,120)"/>
<path d="M0 0 C1 2 1 2 0.4765625 3.8125 C0.05503906 4.8953125 0.05503906 4.8953125 -0.375 6 C-2.14352929 10.96641787 -2.6827983 15.76070288 -3 21 C-3.99 20.67 -4.98 20.34 -6 20 C-6.86625 21.0209375 -6.86625 21.0209375 -7.75 22.0625 C-8.4925 22.701875 -9.235 23.34125 -10 24 C-12.25 23.75 -12.25 23.75 -14 23 C-13.01 22.67 -12.02 22.34 -11 22 C-10.67 21.01 -10.34 20.02 -10 19 C-9.34 19 -8.68 19 -8 19 C-7.01 13.39 -6.02 7.78 -5 2 C-3.68 2.33 -2.36 2.66 -1 3 C-0.67 2.01 -0.34 1.02 0 0 Z " fill="#FEFBD0" transform="translate(115,57)"/>
<path d="M0 0 C1.32 0 2.64 0 4 0 C4.9765625 1.7578125 5.953125 3.515625 6.9296875 5.2734375 C8.00897274 7.1612614 8.00897274 7.1612614 10 9 C9.01 10.485 9.01 10.485 8 12 C1.125 11.125 1.125 11.125 0 10 C-0.07205511 8.31391034 -0.08386068 6.62499341 -0.0625 4.9375 C-0.05347656 4.01839844 -0.04445312 3.09929687 -0.03515625 2.15234375 C-0.02355469 1.44207031 -0.01195312 0.73179688 0 0 Z " fill="#201F71" transform="translate(3,122)"/>
<path d="M0 0 C-0.90172468 1.17825358 -1.82201502 2.34231577 -2.75 3.5 C-3.26046875 4.1496875 -3.7709375 4.799375 -4.296875 5.46875 C-6 7 -6 7 -10 7 C-10 9.97 -10 12.94 -10 16 C-10.66 16 -11.32 16 -12 16 C-13.43304064 13.13391871 -13.30644155 11.18699217 -13 8 C-10.02164073 2.37421026 -6.63095756 -2.03705264 0 0 Z " fill="#27246E" transform="translate(15,91)"/>
<path d="M0 0 C0.33 0 0.66 0 1 0 C1.02578125 0.7734375 1.0515625 1.546875 1.078125 2.34375 C1.45879135 9.33416848 2.61653048 13.90975486 6 20 C5.67 20.66 5.34 21.32 5 22 C3.68 21.34 2.36 20.68 1 20 C0.67 21.98 0.34 23.96 0 26 C-0.66 26 -1.32 26 -2 26 C-2 20.72 -2 15.44 -2 10 C-1.67 10 -1.34 10 -1 10 C-0.67 6.7 -0.34 3.4 0 0 Z " fill="#FEF6BA" transform="translate(92,54)"/>
<path d="M0 0 C3.16115776 1.36983503 3.9927092 1.9890638 6 5 C4.68 5 3.36 5 2 5 C2.43108503 13.50825713 2.98709647 21.69433011 5 30 C1.38913838 25.56848802 -0.26575771 21.65925301 -0.1953125 15.91796875 C-0.18886719 14.98662109 -0.18242188 14.05527344 -0.17578125 13.09570312 C-0.15902344 12.13599609 -0.14226562 11.17628906 -0.125 10.1875 C-0.11597656 9.20845703 -0.10695313 8.22941406 -0.09765625 7.22070312 C-0.07417182 4.81354939 -0.0413284 2.40690257 0 0 Z " fill="#F6D43D" transform="translate(71,42)"/>
<path d="M0 0 C0.99 0 1.98 0 3 0 C3 5.94 3 11.88 3 18 C2.34 18 1.68 18 1 18 C0.67 20.97 0.34 23.94 0 27 C-0.87522236 23.49911058 -1.05306882 21.87377564 -0.66015625 18.453125 C-0.56669922 17.60878906 -0.47324219 16.76445313 -0.37695312 15.89453125 C-0.22129883 14.58548828 -0.22129883 14.58548828 -0.0625 13.25 C0.03740234 12.36183594 0.13730469 11.47367188 0.24023438 10.55859375 C0.48715401 8.37159129 0.74061635 6.18555333 1 4 C-0.65 4.33 -2.3 4.66 -4 5 C-3.34 4.01 -2.68 3.02 -2 2 C-1.34 2 -0.68 2 0 2 C0 1.34 0 0.68 0 0 Z " fill="#F5D840" transform="translate(130,42)"/>
<path d="M0 0 C0 0.33 0 0.66 0 1 C-2.31 1.66 -4.62 2.32 -7 3 C-7.061875 3.78375 -7.12375 4.5675 -7.1875 5.375 C-8 8 -8 8 -10.375 9.3125 C-13 10 -13 10 -16 10 C-15.67791081 6.90583169 -15.39069098 5.38657844 -13.14453125 3.1640625 C-5.40844714 -1.94149385 -5.40844714 -1.94149385 0 0 Z " fill="#201E6C" transform="translate(161,107)"/>
<path d="M0 0 C1.53333984 0.00676758 1.53333984 0.00676758 3.09765625 0.01367188 C5.60683194 0.025397 8.1158849 0.04180824 10.625 0.0625 C10.955 1.7125 11.285 3.3625 11.625 5.0625 C6.3515625 8.28515625 6.3515625 8.28515625 4.625 9.0625 C3.965 8.7325 3.305 8.4025 2.625 8.0625 C3.429375 7.44375 4.23375 6.825 5.0625 6.1875 C7.66374519 4.32085959 7.66374519 4.32085959 8.625 2.0625 C5.6249376 2.03528169 2.62512744 2.01555622 -0.375 2 C-1.21417969 1.99162109 -2.05335938 1.98324219 -2.91796875 1.97460938 C-8.16819339 1.95425967 -13.17955662 2.29881793 -18.375 3.0625 C-18.045 2.4025 -17.715 1.7425 -17.375 1.0625 C-11.72362219 -0.43013965 -5.79988168 -0.04864417 0 0 Z " fill="#FDF7BB" transform="translate(166.375,80.9375)"/>
<path d="M0 0 C0.33 1.32 0.66 2.64 1 4 C-0.60875 4.680625 -0.60875 4.680625 -2.25 5.375 C-4.88062317 6.50088537 -7.46000396 7.67920206 -10 9 C-10 8.34 -10 7.68 -10 7 C-10.56203125 7.16371094 -11.1240625 7.32742187 -11.703125 7.49609375 C-14.13059056 8.02864997 -16.26889681 8.09898681 -18.75 8.0625 C-19.54921875 8.05347656 -20.3484375 8.04445313 -21.171875 8.03515625 C-21.77515625 8.02355469 -22.3784375 8.01195313 -23 8 C-23 6.02 -23 4.04 -23 2 C-22.67 2 -22.34 2 -22 2 C-22 3.65 -22 5.3 -22 7 C-15.39732405 5.68939365 -6.00513405 0 0 0 Z " fill="#FEFAC4" transform="translate(146,81)"/>
<path d="M0 0 C0.66 0.33 1.32 0.66 2 1 C2 7.27 2 13.54 2 20 C4.97 20 7.94 20 11 20 C11.99 20.33 12.98 20.66 14 21 C14 21.66 14 22.32 14 23 C8.72 23 3.44 23 -2 23 C-1.505 21.515 -1.505 21.515 -1 20 C-0.34 20 0.32 20 1 20 C0.67 13.4 0.34 6.8 0 0 Z " fill="#423E81" transform="translate(127,111)"/>
<path d="M0 0 C1.09570312 0.00902344 2.19140625 0.01804687 3.3203125 0.02734375 C4.16335937 0.03894531 5.00640625 0.05054687 5.875 0.0625 C5.875 1.0525 5.875 2.0425 5.875 3.0625 C3.895 4.0525 3.895 4.0525 1.875 5.0625 C1.545 4.7325 1.215 4.4025 0.875 4.0625 C-4.30235677 3.69197661 -4.30235677 3.69197661 -9.125 5.0625 C-11.25 4.625 -11.25 4.625 -13.125 4.0625 C-12.795 3.4025 -12.465 2.7425 -12.125 2.0625 C-10.1875 1.5 -10.1875 1.5 -8.125 1.0625 C-5.36047967 -0.31976016 -3.0788637 -0.03275387 0 0 Z " fill="#0C0C5F" transform="translate(125.125,105.9375)"/>
<path d="M0 0 C0.66 0 1.32 0 2 0 C2 6.93 2 13.86 2 21 C-0.31 21 -2.62 21 -5 21 C-3.68 20.34 -2.36 19.68 -1 19 C-0.67 12.73 -0.34 6.46 0 0 Z " fill="#1A1765" transform="translate(107,112)"/>
<path d="M0 0 C0 3 0 3 -2 8 C2.29 8.66 6.58 9.32 11 10 C11 10.33 11 10.66 11 11 C9.10424749 11.02721176 7.20838021 11.04649136 5.3125 11.0625 C3.72888672 11.07990234 3.72888672 11.07990234 2.11328125 11.09765625 C-0.72410262 11.00865425 -3.2438919 10.64939838 -6 10 C-5.58578031 5.16743695 -3.53586014 3.17320782 0 0 Z " fill="#F4D33A" transform="translate(137,89)"/>
<path d="M0 0 C0.33 0 0.66 0 1 0 C1 8.91 1 17.82 1 27 C0.34 25.68 -0.32 24.36 -1 23 C-1.33 22.67 -1.66 22.34 -2 22 C-2.12719929 19.62758528 -2.17587674 17.25079379 -2.1875 14.875 C-2.20167969 13.57304688 -2.21585937 12.27109375 -2.23046875 10.9296875 C-1.99334861 6.88658815 -1.25492913 3.81934952 0 0 Z " fill="#F6D744" transform="translate(95,44)"/>
<path d="M0 0 C0.66 0.33 1.32 0.66 2 1 C2 2.32 2 3.64 2 5 C-4.8989857 8.44949285 -16.26219918 6.13215274 -23.2421875 3.8515625 C-25 3 -25 3 -26 1 C-25.319375 1.144375 -24.63875 1.28875 -23.9375 1.4375 C-20.63726918 2.06945909 -17.32855574 2.54313941 -14 3 C-14 3.66 -14 4.32 -14 5 C-9.05 4.67 -4.1 4.34 1 4 C0.67 2.68 0.34 1.36 0 0 Z " fill="#F3D746" transform="translate(70,94)"/>
<path d="M0 0 C-0.97528737 1.33617352 -1.95533319 2.6688751 -2.9375 4 C-3.48277344 4.7425 -4.02804688 5.485 -4.58984375 6.25 C-5.05519531 6.8275 -5.52054688 7.405 -6 8 C-6.33 8 -6.66 8 -7 8 C-7 6.35 -7 4.7 -7 3 C-7.90492188 3.23396484 -7.90492188 3.23396484 -8.828125 3.47265625 C-9.62734375 3.66730469 -10.4265625 3.86195312 -11.25 4.0625 C-12.03890625 4.25972656 -12.8278125 4.45695312 -13.640625 4.66015625 C-16.10394822 5.01497267 -17.65604132 4.76877544 -20 4 C-6.3667426 -0.59225513 -6.3667426 -0.59225513 0 0 Z " fill="#F4D330" transform="translate(163,60)"/>
<path d="M0 0 C0.33 0 0.66 0 1 0 C1 7.59 1 15.18 1 23 C2.65 23 4.3 23 6 23 C6 23.66 6 24.32 6 25 C3.69 25.33 1.38 25.66 -1 26 C-0.67 17.42 -0.34 8.84 0 0 Z " fill="#222068" transform="translate(71,107)"/>
<path d="M0 0 C1.24546405 2.49092811 0.7767578 3.41080733 0 6 C-0.66 6 -1.32 6 -2 6 C-2 6.66 -2 7.32 -2 8 C-2.66 8 -3.32 8 -4 8 C-4.061875 8.763125 -4.12375 9.52625 -4.1875 10.3125 C-5 13 -5 13 -7.4375 14.875 C-8.7059375 15.431875 -8.7059375 15.431875 -10 16 C-10.66 15.67 -11.32 15.34 -12 15 C-10.88200014 13.66079162 -9.75538103 12.32877444 -8.625 11 C-7.68527344 9.88625 -7.68527344 9.88625 -6.7265625 8.75 C-5.87191406 7.88375 -5.87191406 7.88375 -5 7 C-4.34 7 -3.68 7 -3 7 C-2.87625 6.401875 -2.7525 5.80375 -2.625 5.1875 C-2 3 -2 3 0 0 Z " fill="#FCF5BA" transform="translate(158,65)"/>
<path d="M0 0 C0.33 0.99 0.66 1.98 1 3 C-3.74963401 6.68096635 -7.00708997 7.58669586 -13 8 C-12.34 6.35 -11.68 4.7 -11 3 C-9.9275 3.061875 -8.855 3.12375 -7.75 3.1875 C-3.89133813 2.99456691 -2.71182212 2.60334924 0 0 Z " fill="#211F6A" transform="translate(63,127)"/>
<path d="M0 0 C9.64062772 -0.46837058 17.09349655 -0.14772718 26 4 C22.72814447 5.07310858 20.57052408 4.89263102 17.25 4.0625 C16.45078125 3.86785156 15.6515625 3.67320313 14.828125 3.47265625 C14.22484375 3.31667969 13.6215625 3.16070312 13 3 C13 2.34 13 1.68 13 1 C8.71 1 4.42 1 0 1 C0 0.67 0 0.34 0 0 Z " fill="#F4D335" transform="translate(35,82)"/>
<path d="M0 0 C0.33 0 0.66 0 1 0 C1 2.97 1 5.94 1 9 C1.99 9.33 2.98 9.66 4 10 C2.37660195 11.70884005 0.70680947 13.37446717 -1 15 C-1.66 15 -2.32 15 -3 15 C-2.22225866 9.94468132 -1.14051606 4.98283716 0 0 Z " fill="#FDF8C4" transform="translate(131,60)"/>
<path d="M0 0 C3.057952 1.73559438 5.63379989 3.38472619 8 6 C7.01 6.33 6.02 6.66 5 7 C4.67 8.98 4.34 10.96 4 13 C3.67 13 3.34 13 3 13 C2.86722656 12.39671875 2.73445313 11.7934375 2.59765625 11.171875 C2.42105469 10.37265625 2.24445313 9.5734375 2.0625 8.75 C1.88847656 7.96109375 1.71445313 7.1721875 1.53515625 6.359375 C1.052444 4.23121297 0.53836822 2.11467158 0 0 Z " fill="#FEFBD4" transform="translate(76,75)"/>
<path d="M0 0 C1.31157516 2.62315032 0.89649988 4.23033436 0.5625 7.125 C0.46066406 8.03507812 0.35882813 8.94515625 0.25390625 9.8828125 C0.17011719 10.58148438 0.08632812 11.28015625 0 12 C-0.66 12 -1.32 12 -2 12 C-2.33 14.31 -2.66 16.62 -3 19 C-3.33 19 -3.66 19 -4 19 C-3.14285714 10.42857143 -3.14285714 10.42857143 -1 7 C-1.99 6.67 -2.98 6.34 -4 6 C-2.68 4.02 -1.36 2.04 0 0 Z " fill="#F8E981" transform="translate(128,69)"/>
<path d="M0 0 C0.33 0.66 0.66 1.32 1 2 C2.65 1.67 4.3 1.34 6 1 C6 1.99 6 2.98 6 4 C3.09399739 5.25664978 1.20395416 6 -2 6 C-1.125 1.125 -1.125 1.125 0 0 Z " fill="#2B2977" transform="translate(147,111)"/>
<path d="M0 0 C0.33 1.32 0.66 2.64 1 4 C-1.64 4.99 -4.28 5.98 -7 7 C-7 6.34 -7 5.68 -7 5 C-7.66 4.67 -8.32 4.34 -9 4 C-2.25 0 -2.25 0 0 0 Z " fill="#FDF3A4" transform="translate(146,81)"/>
<path d="M0 0 C0.66 0 1.32 0 2 0 C2 0.99 2 1.98 2 3 C2.99 3.33 3.98 3.66 5 4 C5.6875 6.0625 5.6875 6.0625 6 8 C3.525 7.01 3.525 7.01 1 6 C0.67 7.32 0.34 8.64 0 10 C0 6.7 0 3.4 0 0 Z " fill="#FEFAD7" transform="translate(92,68)"/>
<path d="M0 0 C1.875 0.1875 1.875 0.1875 4 1 C5.25 3.5625 5.25 3.5625 6 6 C4.02 5.34 2.04 4.68 0 4 C-0.33 4.99 -0.66 5.98 -1 7 C-1 3 -1 3 0 0 Z " fill="#F7D534" transform="translate(98,38)"/>
<path d="M0 0 C1.45922693 0.11409593 2.91740598 0.24165544 4.375 0.375 C5.59316406 0.47941406 5.59316406 0.47941406 6.8359375 0.5859375 C9 1 9 1 11 3 C7.04 3 3.08 3 -1 3 C-0.67 2.01 -0.34 1.02 0 0 Z " fill="#070552" transform="translate(12,131)"/>
<path d="M0 0 C-1.40354413 3.50886032 -2.64365823 4.4267148 -6 6 C-6.99 7.485 -6.99 7.485 -8 9 C-8.66 8.67 -9.32 8.34 -10 8 C-3.56521739 0 -3.56521739 0 0 0 Z " fill="#F7D43A" transform="translate(138,68)"/>
<path d="M0 0 C2.625 0.9375 2.625 0.9375 5 2 C5 2.33 5 2.66 5 3 C-3.03571429 5.27678571 -3.03571429 5.27678571 -7 4 C-6.67 3.34 -6.34 2.68 -6 2 C-4.0625 1.4375 -4.0625 1.4375 -2 1 C-1.34 0.67 -0.68 0.34 0 0 Z " fill="#464684" transform="translate(119,106)"/>
<path d="M0 0 C3.465 1.485 3.465 1.485 7 3 C6.01 3.495 6.01 3.495 5 4 C4.67 4.66 4.34 5.32 4 6 C1.69 5.01 -0.62 4.02 -3 3 C-2.01 2.67 -1.02 2.34 0 2 C0 1.34 0 0.68 0 0 Z " fill="#FDF6A6" transform="translate(59,82)"/>
<path d="M0 0 C1.98 0.495 1.98 0.495 4 1 C4 1.66 4 2.32 4 3 C3.34 3 2.68 3 2 3 C1.87625 3.61875 1.7525 4.2375 1.625 4.875 C1 7 1 7 -1 9 C-0.67 6.03 -0.34 3.06 0 0 Z " fill="#F9EEA4" transform="translate(96,35)"/>
<path d="M0 0 C0.99 0 1.98 0 3 0 C3.33 1.65 3.66 3.3 4 5 C3.01 5.66 2.02 6.32 1 7 C0 6 0 6 -0.0625 2.9375 C-0.041875 1.968125 -0.02125 0.99875 0 0 Z " fill="#050069" transform="translate(5,98)"/>
<path d="M0 0 C3.43927579 1.2419607 6.25207819 2.55740284 9 5 C9 5.66 9 6.32 9 7 C7.125 6.6875 7.125 6.6875 5 6 C4.34 5.01 3.68 4.02 3 3 C2.01 2.67 1.02 2.34 0 2 C0 1.34 0 0.68 0 0 Z " fill="#F6D23A" transform="translate(61,87)"/>
<path d="M0 0 C0.66 0 1.32 0 2 0 C1.67 0.99 1.34 1.98 1 3 C0.67 2.01 0.34 1.02 0 0 Z M-4 2 C-2.68 2.33 -1.36 2.66 0 3 C-1.75 5.0625 -1.75 5.0625 -4 7 C-6.25 6.75 -6.25 6.75 -8 6 C-7.01 5.67 -6.02 5.34 -5 5 C-4.67 4.01 -4.34 3.02 -4 2 Z " fill="#FDF9DF" transform="translate(109,74)"/>
<path d="M0 0 C-1.65 1.65 -3.3 3.3 -5 5 C-5 4.01 -5 3.02 -5 2 C-6.65 2 -8.3 2 -10 2 C-6.3558226 -0.4294516 -4.28758728 -0.16179575 0 0 Z " fill="#F1D541" transform="translate(163,60)"/>
<path d="M0 0 C0.33 0.66 0.66 1.32 1 2 C2.65 2 4.3 2 6 2 C6 2.33 6 2.66 6 3 C-1.42857143 5.42857143 -1.42857143 5.42857143 -5 4 C-4.34 4 -3.68 4 -3 4 C-3 3.34 -3 2.68 -3 2 C-2.01 1.34 -1.02 0.68 0 0 Z " fill="#FEFEE2" transform="translate(149,79)"/>
<path d="M0 0 C0.66 0.33 1.32 0.66 2 1 C1.67 1.99 1.34 2.98 1 4 C0.34 4 -0.32 4 -1 4 C-1.66 5.32 -2.32 6.64 -3 8 C-3.33 6.68 -3.66 5.36 -4 4 C-3.34 4 -2.68 4 -2 4 C-1.34 2.68 -0.68 1.36 0 0 Z " fill="#FACC26" transform="translate(154,68)"/>
<path d="M0 0 C0.99 0.33 1.98 0.66 3 1 C4.1577506 4.47325181 4.06866652 7.36067448 4 11 C2.03698408 7.49461443 1.04097612 3.86648272 0 0 Z " fill="#FDF7C1" transform="translate(106,47)"/>
<path d="M0 0 C0.66 0.66 1.32 1.32 2 2 C-1.96 3.98 -1.96 3.98 -6 6 C-6.33 5.01 -6.66 4.02 -7 3 C-4.69 2.01 -2.38 1.02 0 0 Z " fill="#2B296C" transform="translate(163,128)"/>
<path d="M0 0 C2.97 0.495 2.97 0.495 6 1 C6 1.99 6 2.98 6 4 C4.68 4.33 3.36 4.66 2 5 C2 3.68 2 2.36 2 1 C1.34 0.67 0.68 0.34 0 0 Z " fill="#BFC3DF" transform="translate(90,104)"/>
<path d="M0 0 C0.33 0.66 0.66 1.32 1 2 C0.34 2 -0.32 2 -1 2 C-1.33 2.99 -1.66 3.98 -2 5 C-4.31 4.34 -6.62 3.68 -9 3 C-9 2.67 -9 2.34 -9 2 C-6.03 1.34 -3.06 0.68 0 0 Z " fill="#0F0E60" transform="translate(108,106)"/>
<path d="M0 0 C1.24546405 2.49092811 0.7767578 3.41080733 0 6 C-0.66 6 -1.32 6 -2 6 C-2 6.66 -2 7.32 -2 8 C-2.99 8.33 -3.98 8.66 -5 9 C-5 8.34 -5 7.68 -5 7 C-4.34 7 -3.68 7 -3 7 C-2.87625 6.401875 -2.7525 5.80375 -2.625 5.1875 C-2 3 -2 3 0 0 Z " fill="#FCF0A4" transform="translate(158,65)"/>
</svg>
